<svg width="182" height="33" viewBox="0 0 182 33" fill="none" xmlns="http://www.w3.org/2000/svg"><path d="m16.768.103 3.59 11.046h11.614l-9.397 6.826 3.59 11.046-9.397-6.826-9.396 6.826 3.589-11.046-9.396-6.826h11.614L16.77.103Zm37.3 0 3.722 11.046h12.045l-9.744 6.826 3.722 11.046-9.745-6.826-9.744 6.826 3.722-11.046-9.744-6.826h12.044L54.068.103Zm37.301 0 3.589 11.046h11.614l-9.396 6.826 3.589 11.046-9.396-6.826-9.397 6.826 3.59-11.046-9.397-6.826H87.78L91.369.103Zm37.301 0 3.722 11.046h12.044l-9.744 6.826 3.722 11.046-9.744-6.826-9.744 6.826 3.721-11.046-9.744-6.826h12.045L128.67.103Zm37.3 0 3.589 11.046h11.615l-9.396 6.826 3.589 11.046-9.397-6.826-9.396 6.826 3.589-11.046-9.396-6.826h11.614L165.97.103Z" fill="#FFD600"/></svg>