<svg width="98" height="98" viewBox="0 0 98 98" fill="none" xmlns="http://www.w3.org/2000/svg"><path fill-rule="evenodd" clip-rule="evenodd" d="M93.217 67.607c-3.505 3.615-9.99 7.855-20.064 5.546-16.402-3.759-11.81-25.259-11.81-25.259L40.022 82.338l-17.714-6.233 3.28-22.962-17.263 22.6C17.052 88.63 31.812 97.1 48.55 97.1c20.049 0 37.259-12.152 44.667-29.493Zm3.067-27.97C92.64 45.032 83.178 58.11 78.73 55.44c-6.561-3.937 3.608-34.116 3.608-34.116l-19.682-6.561-23.62 38.38 3.281-20.666-17.714-5.905L.875 57.775A48.803 48.803 0 0 1 0 48.55C0 21.737 21.736 0 48.55 0c23.769 0 43.548 17.08 47.734 39.637Z" fill="#FFD112"/><path fill-rule="evenodd" clip-rule="evenodd" d="m8.324 75.741 17.263-22.599-3.28 22.963 17.714 6.233 21.322-34.444s-4.592 21.5 11.81 25.259c10.076 2.309 16.561-1.933 20.066-5.548A48.394 48.394 0 0 0 97.1 48.55c0-3.045-.28-6.025-.817-8.914C92.642 45.03 83.18 58.109 78.73 55.439c-6.56-3.937 3.609-34.116 3.609-34.116l-19.683-6.561-23.619 38.38 3.28-20.666-17.713-5.905L.876 57.773a48.28 48.28 0 0 0 7.448 17.968Z" fill="#10100F"/></svg>